<?xml version="1.0" encoding="UTF-8" standalone="no"?>
<svg
   xmlns:dc="http://purl.org/dc/elements/1.1/"
   xmlns:cc="http://creativecommons.org/ns#"
   xmlns:rdf="http://www.w3.org/1999/02/22-rdf-syntax-ns#"
   xmlns:svg="http://www.w3.org/2000/svg"
   xmlns="http://www.w3.org/2000/svg"
   version="1.1"
   id="svg3891"
   height="22"
   width="22">
  <metadata
     id="metadata8">
    <rdf:RDF>
      <cc:Work
         rdf:about="">
        <dc:format>image/svg+xml</dc:format>
        <dc:type
           rdf:resource="http://purl.org/dc/dcmitype/StillImage" />
        <dc:title></dc:title>
      </cc:Work>
    </rdf:RDF>
  </metadata>
  <defs
     id="defs6" />
  <path
     id="rect4136-7"
     d="m 12.515802,5.520392 c 0.05993,-0.1485315 0.150091,-0.2877142 0.270486,-0.4081108 l 3.61442,-3.6144179 c 0.479436,-0.4794363 1.256755,-0.4794363 1.73619,0 l 0.939115,0.9391135 c 0.479435,0.4794363 0.479435,1.2567546 0,1.7361909 l -3.614419,3.6144198 c -0.09572,0.095722 -0.203303,0.1723203 -0.318023,0.2298185 0.01203,0.05041 0.01831,0.097637 0.01831,0.1411174 0,1.459258 0.575789,2.0221996 0.85936,2.7899336 0.07728,0.20919 0.157643,0.413577 -4.6e-5,0.571313 l -1.616677,1.616676 c -0.157876,0.157737 -0.413624,0.157783 -0.571312,9.4e-5 L 7.2787106,6.5820505 C 7.1209744,6.4242682 7.1209744,6.1685218 7.2788046,6.010692 L 7.5686603,5.7208369 8.1126204,5.1768773 8.895437,4.3940153 c 0.157736,-0.1577357 0.407928,-0.092051 0.571266,-4.67e-5 0.928171,0.5228061 1.539129,1.1240447 2.998387,1.1240447 0.01644,0 0.03336,8.023e-4 0.05071,0.00233 z M 2.6076937,11.460859 6.7602492,7.3083396 13.093561,13.641687 8.941006,17.794208 c -0.350117,0.350115 -0.9177398,0.350115 -1.2679471,-9e-5 L 6.9112686,17.03229 6.0448638,16.165937 3.7467382,13.318068"
     style="fill:#000000;fill-opacity:1;stroke:none;stroke-width:146;stroke-miterlimit:4;stroke-dasharray:none;stroke-dashoffset:0;stroke-opacity:1" />
</svg>
